<svg width="260" height="72" viewBox="0 0 260 72" fill="none" xmlns="http://www.w3.org/2000/svg">
  <defs>
    <linearGradient id="gasOrangeV6" x1="8" y1="16" x2="98" y2="58" gradientUnits="userSpaceOnUse">
      <stop stop-color="#FFB200"/>
      <stop offset="0.52" stop-color="#FF7A00"/>
      <stop offset="1" stop-color="#F25A00"/>
    </linearGradient>
    <linearGradient id="biteBlueV6" x1="98" y1="12" x2="230" y2="62" gradientUnits="userSpaceOnUse">
      <stop stop-color="#37B8FF"/>
      <stop offset="0.55" stop-color="#157BFF"/>
      <stop offset="1" stop-color="#1757D8"/>
    </linearGradient>
  </defs>
  <text x="8" y="54" fill="url(#gasOrangeV6)" font-family="Arial Black, Arial, sans-serif" font-size="54" font-weight="900" font-style="italic" letter-spacing="-0.06em">Gas</text>
  <text x="95" y="54" fill="url(#biteBlueV6)" font-family="Arial Black, Arial, sans-serif" font-size="54" font-weight="900" font-style="italic" letter-spacing="-0.06em">B</text>
  <rect x="135" y="21" width="12" height="33" rx="6" fill="url(#biteBlueV6)" transform="skewX(-10)"/>
  <text x="146" y="54" fill="url(#biteBlueV6)" font-family="Arial Black, Arial, sans-serif" font-size="54" font-weight="900" font-style="italic" letter-spacing="-0.06em">te</text>
  <path d="M136 7C139.3 2.2 145.9 2.2 149.2 7L154.4 14.4C158.7 20.6 154.2 29 146.6 29H138.6C131 29 126.5 20.6 130.8 14.4L136 7Z" fill="#FFD54A"/>
  <path d="M139.5 10.8C141.7 7.8 146 7.8 148.2 10.8L151.4 15.4C154.2 19.3 151.3 24.7 146.5 24.7H141.2C136.4 24.7 133.5 19.3 136.3 15.4L139.5 10.8Z" fill="#FF8A00"/>
</svg>
